<?xml version="1.0" encoding="utf-8"?>
<!-- Generator: Adobe Illustrator 23.1.1, SVG Export Plug-In . SVG Version: 6.00 Build 0)  -->
<svg version="1.1" id="Layer_1" xmlns="http://www.w3.org/2000/svg" xmlns:xlink="http://www.w3.org/1999/xlink" x="0px" y="0px"
	 viewBox="0 0 219 58" style="enable-background:new 0 0 219 58;" xml:space="preserve">
<style type="text/css">
	.st0{fill-rule:evenodd;clip-rule:evenodd;fill:#7DCA3C;}
</style>
<path class="st0" d="M195.8,4.2c6.4,0,11.7,5.2,11.7,11.7v26.2c0,6.4-5.2,11.7-11.7,11.7H15.7c-6.4,0-11.7-5.2-11.7-11.7V15.9
	c0-6.4,5.2-11.7,11.7-11.7C15.7,4.2,195.8,4.2,195.8,4.2z M195.8,1.2H15.7C7.6,1.2,1.1,7.8,1.1,15.9v26.2c0,8.1,6.6,14.7,14.7,14.7
	h180.1c8.1,0,14.7-6.6,14.7-14.7V15.9C210.5,7.8,203.9,1.2,195.8,1.2 M213,20.3v17.3c0,0,4.9-2.1,4.9-8.7S213,20.3,213,20.3"/>
</svg>
